<svg width="25" height="25" viewBox="0 0 25 25" fill="none" xmlns="http://www.w3.org/2000/svg">
<g clip-path="url(#clip0_585_11533)">
<path d="M3.44307 25H21.5595C23.4608 25 25.0026 23.5155 25.0026 21.6845V5.1646C25.0026 3.33368 23.4608 1.84915 21.5595 1.84915H20.1948V0.92718C20.1948 0.419315 19.7651 0 19.2312 0C18.6973 0 18.2675 0.414106 18.2675 0.92718V1.85436H6.72726V0.92718C6.72726 0.419315 6.29753 0 5.76362 0C5.22971 0 4.79998 0.414106 4.79998 0.92718V1.85436H3.44046C1.54183 1.85176 0 3.33889 0 5.16981V21.6898C0 23.5155 1.54183 25 3.44307 25ZM1.92208 5.1646C1.92208 4.35983 2.60704 3.70091 3.44307 3.70091H4.80779V4.62809C4.80779 5.13595 5.23752 5.55527 5.77143 5.55527C6.30534 5.55527 6.73508 5.14116 6.73508 4.62809V3.70091H18.2753V4.62809C18.2753 5.13595 18.7051 5.55527 19.239 5.55527C19.7729 5.55527 20.2026 5.14116 20.2026 4.62809V3.70091H21.5674C22.4034 3.70091 23.0883 4.35983 23.0883 5.1646V7.87061H1.92208V5.1646ZM1.92208 9.71976H23.0753V21.6845C23.0753 22.4893 22.3904 23.1482 21.5543 23.1482H3.44307C2.60704 23.1482 1.92208 22.4893 1.92208 21.6845V9.71976Z" fill="#0C71C3"/>
<path d="M7.88089 11.2744H5.016C4.72833 11.2744 4.49512 11.5076 4.49512 11.7953V14.6602C4.49512 14.9479 4.72833 15.1811 5.016 15.1811H7.88089C8.16857 15.1811 8.40177 14.9479 8.40177 14.6602V11.7953C8.40177 11.5076 8.16857 11.2744 7.88089 11.2744Z" fill="#0C71C3"/>
<path d="M14.1602 11.209H11.2953C11.0076 11.209 10.7744 11.4422 10.7744 11.7299V14.5948C10.7744 14.8824 11.0076 15.1156 11.2953 15.1156H14.1602C14.4479 15.1156 14.6811 14.8824 14.6811 14.5948V11.7299C14.6811 11.4422 14.4479 11.209 14.1602 11.209Z" fill="#0C71C3"/>
<path d="M20.6272 11.2744H17.7623C17.4747 11.2744 17.2415 11.5076 17.2415 11.7953V14.6602C17.2415 14.9479 17.4747 15.1811 17.7623 15.1811H20.6272C20.9149 15.1811 21.1481 14.9479 21.1481 14.6602V11.7953C21.1481 11.5076 20.9149 11.2744 20.6272 11.2744Z" fill="#0C71C3"/>
<path d="M7.78714 16.4492H4.92225C4.63458 16.4492 4.40137 16.6824 4.40137 16.9701V19.835C4.40137 20.1227 4.63458 20.3559 4.92225 20.3559H7.78714C8.07482 20.3559 8.30802 20.1227 8.30802 19.835V16.9701C8.30802 16.6824 8.07482 16.4492 7.78714 16.4492Z" fill="#0C71C3"/>
<path d="M14.0691 16.3848H11.2042C10.9166 16.3848 10.6833 16.618 10.6833 16.9057V19.7705C10.6833 20.0582 10.9166 20.2914 11.2042 20.2914H14.0691C14.3568 20.2914 14.59 20.0582 14.59 19.7705V16.9057C14.59 16.618 14.3568 16.3848 14.0691 16.3848Z" fill="#0C71C3"/>
<path d="M20.5332 16.4492H17.6683C17.3807 16.4492 17.1475 16.6824 17.1475 16.9701V19.835C17.1475 20.1227 17.3807 20.3559 17.6683 20.3559H20.5332C20.8209 20.3559 21.0541 20.1227 21.0541 19.835V16.9701C21.0541 16.6824 20.8209 16.4492 20.5332 16.4492Z" fill="#0C71C3"/>
</g>
<defs>
<clipPath id="clip0_585_11533">
<rect width="25" height="25" fill="white"/>
</clipPath>
</defs>
</svg>
